# xmcd
#
# Track frame offsets:
#	150
#	19773
#	102736
#	112491
#	122533
#	141088
#	156925
#	210312
#
# Disc length: 3066 seconds
#
# Revision: 1
# Processed by: cddbd v1.5.1PL0 Copyright (c) Steve Scherf et al.
# Submitted via: CDex 1.50Beta5
#
DISCID=710bf808
DTITLE=蘭咲礼香&宇佐美ゆん(満仲由紀子&金田朋子) - ミルキィシーズン・ペア・コレクション Vol.1 蘭咲礼香&宇佐美ゆん(満仲由紀子&金田朋子)
DYEAR=2002
DGENRE=Game
TTITLE0=蘭咲礼香&宇佐美ゆん(満仲由紀子&金田朋子)/気になって☆キュン
TTITLE1=蘭咲礼香&宇佐美ゆん(満仲由紀子&金田朋子)/礼香とゆんのCDドラマ「二人ぼっちでお留守番」
TTITLE2=礼香イメージ/セレクトBGM(オリジナル)
TTITLE3=ゆんイメージ/セレクトBGM(オリジナル)
TTITLE4=礼香イメージ/セレクトBGM(アレンジ)
TTITLE5=ゆんイメージ/セレクトBGM(アレンジ)
TTITLE6=満仲由紀子&金田朋子/ミルキィトーク
TTITLE7=蘭咲礼香&宇佐美ゆん(満仲由紀子&金田朋子)/気になって☆キュン(カラオケ)
EXTD=
EXTT0=
EXTT1=
EXTT2=
EXTT3=
EXTT4=
EXTT5=
EXTT6=
EXTT7=
PLAYORDER=
